<svg width="122" height="28" viewBox="0 0 122 28" fill="none" xmlns="http://www.w3.org/2000/svg">
<circle cx="14" cy="14" r="14" fill="#333333"/>
<rect width="14.8492" height="2.12131" rx="1.06065" transform="matrix(0.707103 -0.707111 0.707103 0.707111 8 18.5)" fill="white"/>
<rect width="14.8492" height="2.12131" rx="1.06065" transform="matrix(0.707103 0.707111 -0.707103 0.707111 9.5 8)" fill="white"/>
<path d="M47.6387 14.9746H41.916V21H39.4453V6.78125H48.4785V8.77344H41.916V13.002H47.6387V14.9746ZM56.1934 21C56.0892 20.7982 55.998 20.4694 55.9199 20.0137C55.1647 20.8014 54.2402 21.1953 53.1465 21.1953C52.0853 21.1953 51.2194 20.8926 50.5488 20.2871C49.8783 19.6816 49.543 18.9329 49.543 18.041C49.543 16.9147 49.9596 16.0521 50.793 15.4531C51.6328 14.8477 52.8307 14.5449 54.3867 14.5449H55.8418V13.8516C55.8418 13.3047 55.6888 12.8685 55.3828 12.543C55.0768 12.2109 54.6113 12.0449 53.9863 12.0449C53.446 12.0449 53.0033 12.1816 52.6582 12.4551C52.3132 12.722 52.1406 13.0638 52.1406 13.4805H49.7676C49.7676 12.901 49.9596 12.3607 50.3438 11.8594C50.7279 11.3516 51.2487 10.9544 51.9062 10.668C52.5703 10.3815 53.3092 10.2383 54.123 10.2383C55.36 10.2383 56.3464 10.5508 57.082 11.1758C57.8177 11.7943 58.1953 12.6667 58.2148 13.793V18.5586C58.2148 19.5091 58.3483 20.2676 58.6152 20.834V21H56.1934ZM53.5859 19.291C54.0547 19.291 54.4941 19.1771 54.9043 18.9492C55.321 18.7214 55.6335 18.4154 55.8418 18.0312V16.0391H54.5625C53.6836 16.0391 53.0228 16.1921 52.5801 16.498C52.1374 16.804 51.916 17.237 51.916 17.7969C51.916 18.2526 52.0658 18.6172 52.3652 18.8906C52.6712 19.1576 53.0781 19.291 53.5859 19.291ZM64.2695 17.9922L66.5059 10.4336H68.957L65.2949 21H63.2344L59.543 10.4336H62.0039L64.2695 17.9922ZM69.8457 15.6191C69.8457 14.584 70.0508 13.653 70.4609 12.8262C70.8711 11.9928 71.4473 11.3548 72.1895 10.9121C72.9316 10.4629 73.7845 10.2383 74.748 10.2383C76.1738 10.2383 77.3294 10.6973 78.2148 11.6152C79.1068 12.5332 79.5885 13.7507 79.6602 15.2676L79.6699 15.8242C79.6699 16.8659 79.4681 17.7969 79.0645 18.6172C78.6673 19.4375 78.0944 20.0723 77.3457 20.5215C76.6035 20.9707 75.7441 21.1953 74.7676 21.1953C73.2767 21.1953 72.082 20.7005 71.1836 19.7109C70.2917 18.7148 69.8457 17.39 69.8457 15.7363V15.6191ZM72.2188 15.8242C72.2188 16.9115 72.4434 17.7643 72.8926 18.3828C73.3418 18.9948 73.9668 19.3008 74.7676 19.3008C75.5684 19.3008 76.1901 18.9883 76.6328 18.3633C77.082 17.7383 77.3066 16.8236 77.3066 15.6191C77.3066 14.5514 77.0755 13.7051 76.6133 13.0801C76.1576 12.4551 75.5358 12.1426 74.748 12.1426C73.9733 12.1426 73.3581 12.4518 72.9023 13.0703C72.4466 13.6823 72.2188 14.6003 72.2188 15.8242ZM88.0781 19.9648C87.3815 20.7852 86.3919 21.1953 85.1094 21.1953C83.9635 21.1953 83.0944 20.86 82.502 20.1895C81.916 19.5189 81.623 18.5488 81.623 17.2793V10.4336H83.9961V17.25C83.9961 18.5911 84.5527 19.2617 85.666 19.2617C86.8184 19.2617 87.5964 18.8483 88 18.0215V10.4336H90.373V21H88.1367L88.0781 19.9648ZM98.3223 12.6016C98.0098 12.5495 97.6875 12.5234 97.3555 12.5234C96.2682 12.5234 95.5358 12.9401 95.1582 13.7734V21H92.7852V10.4336H95.0508L95.1094 11.6152C95.6823 10.6973 96.4766 10.2383 97.4922 10.2383C97.8307 10.2383 98.1107 10.2839 98.332 10.375L98.3223 12.6016ZM102.346 21H99.9727V10.4336H102.346V21ZM99.8262 7.68945C99.8262 7.32487 99.9401 7.02214 100.168 6.78125C100.402 6.54036 100.734 6.41992 101.164 6.41992C101.594 6.41992 101.926 6.54036 102.16 6.78125C102.395 7.02214 102.512 7.32487 102.512 7.68945C102.512 8.04753 102.395 8.34701 102.16 8.58789C101.926 8.82227 101.594 8.93945 101.164 8.93945C100.734 8.93945 100.402 8.82227 100.168 8.58789C99.9401 8.34701 99.8262 8.04753 99.8262 7.68945ZM107.912 7.86523V10.4336H109.777V12.1914H107.912V18.0898C107.912 18.4935 107.99 18.7865 108.146 18.9688C108.309 19.1445 108.596 19.2324 109.006 19.2324C109.279 19.2324 109.556 19.1999 109.836 19.1348V20.9707C109.296 21.1204 108.775 21.1953 108.273 21.1953C106.451 21.1953 105.539 20.1895 105.539 18.1777V12.1914H103.801V10.4336H105.539V7.86523H107.912ZM116.252 21.1953C114.748 21.1953 113.527 20.7233 112.59 19.7793C111.659 18.8288 111.193 17.5658 111.193 15.9902V15.6973C111.193 14.6426 111.395 13.7018 111.799 12.875C112.209 12.0417 112.782 11.3939 113.518 10.9316C114.253 10.4694 115.074 10.2383 115.979 10.2383C117.417 10.2383 118.527 10.6973 119.309 11.6152C120.096 12.5332 120.49 13.832 120.49 15.5117V16.4688H113.586C113.658 17.3411 113.947 18.0312 114.455 18.5391C114.969 19.0469 115.614 19.3008 116.389 19.3008C117.476 19.3008 118.361 18.8613 119.045 17.9824L120.324 19.2031C119.901 19.8346 119.335 20.3262 118.625 20.6777C117.922 21.0228 117.131 21.1953 116.252 21.1953ZM115.969 12.1426C115.318 12.1426 114.79 12.3704 114.387 12.8262C113.99 13.2819 113.736 13.9167 113.625 14.7305H118.146V14.5547C118.094 13.7604 117.883 13.1615 117.512 12.7578C117.141 12.3477 116.626 12.1426 115.969 12.1426Z" fill="#ABABAB"/>
</svg>
